<svg 
  id="Logo" 
  xmlns="http://www.w3.org/2000/svg" 
  viewBox="120 120 760 760"
>
  <style>
    .primary { fill: none; stroke: #000000; stroke-linecap: round; stroke-linejoin: round; }
    .primary-fill { fill: #000000; stroke: none; }
  </style>
  <g>
    <polygon 
      class="primary"
      stroke-width="29" 
      points="500 123.78 174.18 311.89 174.18 688.11 500 876.22 825.82 688.11 825.82 311.89 500 123.78"
    />
    <circle 
      class="primary"
      stroke-width="29" 
      cx="500" 
      cy="500" 
      r="162.65"
    />
    <path 
      class="primary-fill"
      d="M753.03,448.91l-36.04-7.29c-3.87-.78-6.99-3.62-8.17-7.39-3.87-12.28-8.8-24.1-14.67-35.34-1.83-3.51-1.64-7.72.55-11.02l20.35-30.66c4.43-6.68,4.05-14.91-.92-19.88l-51.46-51.46c-4.97-4.97-13.2-5.35-19.88-.92l-30.66,20.35c-3.3,2.19-7.51,2.38-11.02.55-10.95-5.72-22.44-10.54-34.38-14.35-3.74-1.2-6.56-4.31-7.34-8.16l-8.3-41.03c-1.59-7.85-7.68-13.4-14.7-13.4h-72.78c-7.02,0-13.11,5.55-14.7,13.4l-8.3,41.03c-.78,3.85-3.6,6.96-7.34,8.16-11.94,3.81-23.43,8.63-34.38,14.35-3.51,1.83-7.72,1.64-11.02-.55l-30.66-20.35c-6.68-4.43-14.91-4.05-19.88.92l-51.46,51.46c-4.97,4.97-5.35,13.2-.92,19.88l20.35,30.66c2.19,3.3,2.38,7.51.55,11.02-5.87,11.24-10.8,23.06-14.67,35.34-1.18,3.77-4.3,6.61-8.17,7.39l-36.04,7.29c-7.85,1.59-13.41,7.68-13.41,14.7v72.78c0,7.02,5.56,13.11,13.41,14.7l36.04,7.29c3.87.78,6.99,3.62,8.17,7.39,3.87,12.28,8.8,24.1,14.67,35.34,1.83,3.51,1.64,7.72-.55,11.02l-20.35,30.66c-4.43,6.68-4.05,14.91.92,19.88l51.46,51.46c4.97,4.97,13.2,5.35,19.88.92l30.66-20.35c3.3-2.19,7.51-2.38,11.02-.55,11.24,5.87,23.06,10.8,35.34,14.67,3.77,1.18,6.61,4.3,7.39,8.17l7.29,36.04c1.59,7.85,7.68,13.41,14.7,13.41h72.78c7.02,0,13.11-5.56,14.7-13.41l7.29-36.04c.78-3.87,3.62-6.99,7.39-8.17,12.28-3.87,24.1-8.8,35.34-14.67,3.51-1.83,7.72-1.64,11.02.55l30.66,20.35c6.68,4.43,14.91,4.05,19.88-.92l51.46-51.46c4.97-4.97,5.35-13.2.92-19.88l-20.35-30.66c-2.19-3.3-2.38-7.51-.55-11.02,5.87-11.24,10.8-23.06,14.67-35.34,1.18-3.77,4.3-6.61,8.17-7.39l36.04-7.29c7.85-1.59,13.41-7.68,13.41-14.7v-72.78c0-7.02-5.56-13.11-13.41-14.7ZM500,662.65c-89.83,0-162.65-72.82-162.65-162.65s72.82-162.65,162.65-162.65,162.65,72.82,162.65,162.65-72.82,162.65-162.65,162.65Z"
    />
  </g>
</svg>
